<svg xmlns="http://www.w3.org/2000/svg" width="18" height="18" viewBox="0 0 18 18" fill="none">
  <path fill-rule="evenodd" clip-rule="evenodd" d="M3.75 3C3.55109 3 3.36032 3.07902 3.21967 3.21967C3.07902 3.36032 3 3.55109 3 3.75V14.25C3 14.4489 3.07902 14.6397 3.21967 14.7803C3.36032 14.921 3.55109 15 3.75 15H6.75C7.16421 15 7.5 15.3358 7.5 15.75C7.5 16.1642 7.16421 16.5 6.75 16.5H3.75C3.15326 16.5 2.58097 16.2629 2.15901 15.841C1.73705 15.419 1.5 14.8467 1.5 14.25V3.75C1.5 3.15326 1.73705 2.58097 2.15901 2.15901C2.58097 1.73705 3.15326 1.5 3.75 1.5H6.75C7.16421 1.5 7.5 1.83579 7.5 2.25C7.5 2.66421 7.16421 3 6.75 3H3.75Z" fill="#FF0000"/>
  <path fill-rule="evenodd" clip-rule="evenodd" d="M11.4697 4.71967C11.7626 4.42678 12.2374 4.42678 12.5303 4.71967L16.2803 8.46967C16.5732 8.76256 16.5732 9.23744 16.2803 9.53033L12.5303 13.2803C12.2374 13.5732 11.7626 13.5732 11.4697 13.2803C11.1768 12.9874 11.1768 12.5126 11.4697 12.2197L14.6893 9L11.4697 5.78033C11.1768 5.48744 11.1768 5.01256 11.4697 4.71967Z" fill="#FF0000"/>
  <path fill-rule="evenodd" clip-rule="evenodd" d="M6 9C6 8.58579 6.33579 8.25 6.75 8.25H15.75C16.1642 8.25 16.5 8.58579 16.5 9C16.5 9.41421 16.1642 9.75 15.75 9.75H6.75C6.33579 9.75 6 9.41421 6 9Z" fill="#FF0000"/>
</svg>