<svg width="507" height="506" viewBox="0 0 507 506" fill="none" xmlns="http://www.w3.org/2000/svg">
<path d="M304.982 362.806H224.462C210.652 362.806 199.354 351.553 199.354 337.798V266.94C199.354 253.185 210.652 241.931 224.462 241.931H304.983C318.793 241.931 330.092 253.185 330.092 266.94V337.798C330.092 351.552 318.792 362.806 304.982 362.806Z" fill="white"/>
<path d="M304.983 241.93C318.793 241.93 330.091 253.184 330.091 266.939V337.797C330.091 351.552 318.793 362.805 304.983 362.805H224.463C210.652 362.805 199.354 351.552 199.354 337.797V266.939C199.354 253.184 210.652 241.93 224.463 241.93H304.983ZM304.983 237.977H224.463C220.552 237.977 216.75 238.748 213.162 240.266C209.703 241.729 206.595 243.82 203.924 246.482C201.252 249.143 199.152 252.239 197.683 255.683C196.159 259.256 195.385 263.043 195.385 266.939V337.797C195.385 341.692 196.159 345.479 197.683 349.053C199.152 352.497 201.251 355.593 203.924 358.254C206.595 360.915 209.704 363.006 213.162 364.47C216.75 365.988 220.552 366.758 224.463 366.758H304.984C308.895 366.758 312.697 365.988 316.285 364.47C319.743 363.006 322.851 360.916 325.523 358.254C328.194 355.593 330.294 352.496 331.764 349.053C333.288 345.479 334.061 341.692 334.061 337.797V266.939C334.061 263.043 333.288 259.256 331.764 255.683C330.294 252.238 328.195 249.143 325.523 246.482C322.851 243.821 319.742 241.729 316.285 240.266C312.697 238.748 308.894 237.977 304.983 237.977Z" fill="#317F8B"/>
<path d="M328.291 318.991C315.754 320.455 303.258 320.815 303.258 320.815C303.258 320.815 296.895 289.21 295.13 264.427C293.831 246.064 295.053 231.451 303.258 236.217C307.033 238.41 311.38 242.54 315.914 247.779C332.917 267.437 352.452 302.735 353.524 310.059C354.216 314.77 341.236 317.471 328.291 318.991Z" fill="white"/>
<path d="M301.58 322.921L301.237 321.221C301.199 321.027 297.307 301.607 294.789 281.499C293.303 269.643 292.577 259.855 292.63 252.407C292.701 242.233 294.184 236.463 297.297 234.248C298.663 233.276 300.988 232.521 304.299 234.445C315.214 240.787 329.067 260.992 336.354 272.471C341.214 280.129 345.866 288.178 349.455 295.135C351.984 300.037 355.097 306.553 355.567 309.762C355.704 310.694 355.613 312.107 354.399 313.545C352.645 315.626 349.002 317.254 342.932 318.668C338.481 319.705 332.763 320.597 325.934 321.32C314.374 322.543 303.428 322.868 303.319 322.871L301.58 322.921ZM300.416 237.362C300.018 237.362 299.81 237.511 299.695 237.591C298.349 238.549 294.315 244.505 298.88 280.969C300.948 297.483 303.95 313.538 304.947 318.699C308.467 318.558 316.82 318.152 325.521 317.231C345.724 315.09 350.237 312.092 351.24 310.903C351.518 310.574 351.495 310.422 351.485 310.356C350.899 306.364 343.278 291.069 332.867 274.667C320.81 255.672 309.641 242.304 302.22 237.993C301.379 237.504 300.806 237.362 300.416 237.362Z" fill="#317F8B"/>
<path d="M239.466 235.051L236.928 254.17L235.485 265.039L232.406 288.246C232.406 288.246 226.779 292.058 217.42 295.078C213.923 296.208 209.895 297.219 205.45 297.882C198.184 298.971 189.783 299.11 180.681 297.255C157.263 292.478 143.209 275.153 137.124 266.442C125.364 249.628 123.555 245.083 126.824 238.005C129.319 232.58 133.596 231.59 133.596 231.59C133.596 231.59 133.385 227.255 136.829 225.713C147.154 221.095 160.454 233.428 160.454 233.428C160.454 233.428 160.949 220.166 168.076 223.228C172.986 225.338 174.099 239.778 174.099 239.778C174.099 239.778 180.69 248.212 191.159 249.331C196.631 249.916 204.202 248.335 211.721 246.039C211.808 246.013 211.897 245.988 211.984 245.957C215.991 244.725 219.972 243.296 223.618 241.883C225.253 241.252 226.82 240.619 228.29 240.014C234.86 237.301 239.466 235.051 239.466 235.051Z" fill="white"/>
<path opacity="0.35" d="M137.121 266.442C143.211 275.15 157.263 292.479 180.679 297.255C195.346 300.243 208.199 298.048 217.421 295.074C226.781 292.058 232.406 288.244 232.406 288.244L232.819 269.93C232.819 269.93 226.442 263.809 220.502 266.305C213.365 269.304 215.652 279.496 205.459 282.331C177.124 290.212 154.105 275.813 146.698 269.492C136.423 260.724 133.742 255.201 132.296 252.922C129.304 248.206 126.993 244.501 125.69 241.183C124.362 246.796 127.197 252.247 137.121 266.442Z" fill="#317F8B"/>
<path d="M194.809 300.732C189.92 300.732 185.051 300.243 180.266 299.266C169.739 297.119 159.918 292.286 151.077 284.897C145.387 280.142 140.122 274.327 135.43 267.616C129.704 259.425 126.064 253.798 124.404 249.278C122.813 244.947 122.971 241.432 124.946 237.145C126.891 232.923 129.831 230.982 131.608 230.149C131.898 227.979 133.029 225.163 135.984 223.842C144.379 220.085 154.067 225.898 158.863 229.476C158.909 229.234 158.961 228.985 159.017 228.733C159.812 225.182 161.184 222.772 163.095 221.572C164.268 220.834 166.227 220.196 168.897 221.345C171.606 222.51 173.582 225.942 174.941 231.837C175.636 234.857 175.97 237.692 176.096 238.948C177.554 240.592 183.254 246.42 191.382 247.288C206.219 248.872 238.234 233.363 238.556 233.206C239.239 232.872 240.051 232.94 240.668 233.383C241.285 233.825 241.608 234.57 241.509 235.32L234.454 288.512C234.377 289.093 234.056 289.612 233.569 289.941C233.333 290.101 227.675 293.9 218.267 296.961C212.756 298.755 207.086 299.923 201.417 300.434C199.214 300.633 197.009 300.732 194.809 300.732ZM134.073 233.585C133.806 233.657 130.658 234.597 128.695 238.857C126.051 244.595 126.701 247.939 138.815 265.267C150.204 281.557 164.823 291.922 181.092 295.24C195.916 298.264 208.792 295.72 216.983 293.055C223.928 290.795 228.716 288.099 230.487 287.023L236.923 238.504C233.561 240.033 228.062 242.435 221.89 244.739C208.151 249.867 197.737 252.098 190.942 251.373C179.73 250.177 172.764 241.413 172.472 241.04C172.224 240.722 172.074 240.338 172.044 239.936C172.041 239.902 171.761 236.395 170.909 232.711C169.472 226.5 167.753 225.327 167.261 225.116C166.029 224.586 165.497 224.919 165.297 225.045C163.563 226.131 162.624 230.646 162.511 233.505C162.479 234.307 161.98 235.018 161.235 235.324C160.489 235.63 159.634 235.477 159.043 234.929C158.921 234.816 146.621 223.585 137.673 227.589C135.612 228.512 135.649 231.295 135.655 231.495C135.716 232.509 135.07 233.375 134.073 233.585Z" fill="#317F8B"/>
<path d="M162.151 233.426C162.198 234.003 162.112 234.528 161.996 234.983C161.939 235.218 161.867 235.421 161.795 235.63C161.721 235.826 161.64 236.025 161.561 236.202C161.236 236.931 160.884 237.536 160.55 238.122C160.214 238.705 159.891 239.259 159.59 239.815L159.37 240.233C159.301 240.373 159.227 240.512 159.161 240.653L158.965 241.078L158.78 241.507L158.611 241.943L158.454 242.385C158.401 242.533 158.361 242.685 158.313 242.835C158.264 242.985 158.226 243.139 158.185 243.291C158.029 243.906 157.894 244.538 157.816 245.19C157.731 245.84 157.676 246.508 157.66 247.186C157.643 247.528 157.65 247.869 157.647 248.216C157.641 248.39 157.656 248.562 157.657 248.737C157.66 248.912 157.666 249.087 157.665 249.265V249.277C157.665 249.414 157.554 249.524 157.415 249.524C157.319 249.524 157.236 249.47 157.195 249.39C156.864 248.751 156.565 248.087 156.334 247.393C156.09 246.702 155.915 245.981 155.787 245.244C155.535 243.769 155.541 242.208 155.818 240.683L155.932 240.114C155.976 239.927 156.025 239.74 156.072 239.552C156.122 239.365 156.177 239.182 156.229 238.996C156.284 238.812 156.348 238.632 156.408 238.451C156.657 237.728 156.964 237.041 157.28 236.397C157.596 235.755 157.931 235.148 158.203 234.622C158.49 234.089 158.653 233.656 158.748 233.422L158.947 232.933C159.294 232.085 160.266 231.678 161.118 232.023C161.72 232.269 162.1 232.824 162.151 233.426Z" fill="#317F8B"/>
<path d="M178.413 298.666C177.893 298.666 177.39 298.379 177.143 297.883C176.794 297.185 177.08 296.338 177.78 295.99C183.499 293.156 187.406 284.313 189.078 270.416C190.374 259.646 189.835 249.629 189.83 249.53C189.786 248.752 190.384 248.086 191.165 248.041C191.943 247.997 192.616 248.594 192.66 249.372C192.665 249.474 193.218 259.704 191.897 270.714C191.115 277.23 189.84 282.758 188.105 287.146C185.86 292.824 182.811 296.651 179.044 298.518C178.841 298.618 178.625 298.666 178.413 298.666Z" fill="#317F8B"/>
<g opacity="0.35">
<g opacity="0.35">
<g opacity="0.35">
<g opacity="0.35">
<path opacity="0.35" d="M361.347 389.537V389.249C359.08 389.346 361.347 389.537 361.347 389.537Z" fill="#317F8B"/>
</g>
</g>
</g>
</g>
<path d="M332.737 354.854H196.564C196.564 354.854 197.394 331.448 205.449 297.881C208.678 284.418 213.072 269.322 219.038 253.444C220.472 249.633 221.999 245.776 223.618 241.882C228.146 231.018 233.427 219.892 239.585 208.767H289.717C294.807 217.966 299.299 227.16 303.26 236.216C305.822 242.071 308.164 247.865 310.299 253.556C319.618 278.366 325.09 301.264 328.292 318.99C332.242 340.858 332.737 354.854 332.737 354.854Z" fill="white"/>
<path d="M314.043 271.013C316.675 273.94 317.878 277.346 318.989 280.767C319.547 282.478 320.097 284.192 320.622 285.915C320.885 286.775 321.155 287.635 321.39 288.503C321.631 289.369 321.866 290.239 322.102 291.108L322.791 293.718C323.018 294.588 323.247 295.458 323.46 296.333L324.713 301.585C324.917 302.461 325.141 303.332 325.34 304.21L325.938 306.841L326.551 309.469C326.758 310.345 326.971 311.219 327.164 312.097L328.345 317.364C328.548 318.24 328.723 319.123 328.91 320.003L329.463 322.645L329.74 323.965L329.878 324.626L330.008 325.288L330.526 327.936C330.698 328.819 330.876 329.701 331.063 330.581C331.242 331.463 331.423 332.345 331.611 333.226C332.4 336.742 332.976 340.303 333.215 343.91C333.246 344.361 333.281 344.81 333.303 345.263L333.361 346.62C333.39 347.526 333.415 348.43 333.401 349.342C333.396 350.251 333.375 351.161 333.316 352.075C333.263 352.988 333.187 353.902 333.049 354.823C333.023 355 332.856 355.122 332.678 355.096C332.557 355.078 332.461 354.995 332.421 354.889L332.419 354.885C331.769 353.162 331.237 351.432 330.734 349.702C330.487 348.837 330.249 347.969 330.019 347.103L329.688 345.801C329.583 345.366 329.476 344.932 329.367 344.498C328.945 342.759 328.573 341.017 328.239 339.266C328.078 338.39 327.931 337.511 327.798 336.63C327.654 335.75 327.521 334.869 327.384 333.989C327.25 333.107 327.109 332.227 326.966 331.347C326.814 330.468 326.645 329.593 326.474 328.718L325.961 326.092L325.832 325.436L325.695 324.781L325.421 323.472L324.872 320.853C324.686 319.981 324.513 319.105 324.312 318.236L323.139 313.013C322.951 312.142 322.731 311.276 322.524 310.409L321.883 307.81L321.226 305.216C321.12 304.783 320.999 304.353 320.883 303.923L320.53 302.632L319.114 297.471C318.624 295.755 318.123 294.043 317.645 292.324C317.407 291.464 317.169 290.605 316.938 289.743L316.766 289.097L316.583 288.454L316.224 287.165C315.744 285.447 315.289 283.721 314.841 281.993L314.512 280.695C314.402 280.262 314.281 279.833 314.165 279.401C313.935 278.539 313.743 277.664 313.597 276.776C313.453 275.886 313.352 274.982 313.314 274.058C313.293 273.596 313.291 273.129 313.308 272.654C313.326 272.18 313.357 271.7 313.441 271.204L313.444 271.185C313.476 270.998 313.654 270.871 313.842 270.903C313.923 270.917 313.993 270.958 314.043 271.013Z" fill="#317F8B"/>
<path d="M196.245 354.844C196.035 354.379 195.891 353.917 195.756 353.453C195.621 352.987 195.52 352.528 195.43 352.065C195.249 351.139 195.151 350.218 195.097 349.3C195.072 348.84 195.055 348.382 195.056 347.924C195.057 347.467 195.075 347.012 195.097 346.557L195.174 345.191C195.198 344.736 195.226 344.281 195.264 343.827C195.405 342.011 195.544 340.192 195.757 338.385C195.853 337.48 195.961 336.576 196.068 335.671C196.12 335.22 196.19 334.77 196.251 334.318L196.443 332.967L196.843 330.266C196.984 329.367 197.147 328.473 197.3 327.576C197.613 325.784 197.908 323.989 198.265 322.206C198.612 320.42 198.93 318.63 199.285 316.848C199.645 315.067 199.997 313.283 200.344 311.499C200.432 311.053 200.512 310.606 200.608 310.162L200.894 308.829L201.464 306.164L202.034 303.498C202.083 303.276 202.127 303.053 202.178 302.832L202.335 302.169L202.648 300.842L203.899 295.535C203.999 295.092 204.113 294.652 204.225 294.211C204.334 293.77 204.445 293.329 204.549 292.888C204.76 292.003 204.969 291.119 205.17 290.232C205.375 289.347 205.576 288.459 205.788 287.575C205.992 286.688 206.248 285.816 206.504 284.943C206.766 284.073 207.044 283.206 207.335 282.344C207.628 281.482 207.939 280.625 208.253 279.77L208.738 278.491C208.82 278.279 208.911 278.069 208.999 277.858C209.089 277.647 209.175 277.436 209.268 277.226C209.634 276.387 210.005 275.551 210.399 274.723C210.789 273.893 211.197 273.07 211.624 272.255C212.052 271.439 212.495 270.629 212.987 269.837C213.081 269.684 213.282 269.637 213.435 269.732C213.539 269.796 213.595 269.91 213.589 270.025V270.03C213.385 273.757 212.684 277.303 211.993 280.848C211.815 281.733 211.633 282.616 211.434 283.494C211.233 284.372 211.017 285.245 210.788 286.113C210.31 287.846 209.829 289.577 209.328 291.305C209.077 292.169 208.833 293.034 208.592 293.901C208.469 294.333 208.355 294.768 208.238 295.202C208.124 295.637 208.006 296.07 207.908 296.51L206.671 301.76L206.361 303.072L206.207 303.729C206.156 303.948 206.112 304.168 206.064 304.387L205.5 307.024L204.935 309.661L204.653 310.981C204.559 311.42 204.479 311.863 204.392 312.303C202.943 319.349 201.969 326.48 201.022 333.597L200.654 336.264C200.54 337.154 200.425 338.044 200.301 338.933L199.57 344.267C199.438 345.156 199.331 346.045 199.211 346.934C199.149 347.378 199.083 347.823 199 348.265C198.918 348.708 198.838 349.151 198.738 349.592C198.54 350.476 198.294 351.357 198.002 352.235C197.857 352.675 197.684 353.115 197.505 353.553C197.323 353.991 197.124 354.432 196.88 354.869L196.877 354.873C196.782 355.043 196.568 355.104 196.398 355.009C196.326 354.968 196.275 354.91 196.245 354.844Z" fill="#317F8B"/>
<path d="M235.784 325.323C228.018 328.455 215.998 327.8 207.804 326.811C202.89 326.22 199.439 321.702 200.164 316.824C200.825 312.373 204.759 309.136 209.271 309.346C216.935 309.704 228.432 309.872 235.713 308.263" fill="white"/>
<g opacity="0.35">
<g opacity="0.35">
<g opacity="0.35">
<g opacity="0.35">
<path opacity="0.35" d="M235.786 325.322C228.018 328.458 215.998 327.796 207.804 326.815C202.89 326.222 199.44 321.702 200.165 316.827C200.309 315.832 200.623 314.898 201.069 314.046C202.363 316.507 204.813 318.32 207.804 318.682C215.983 319.67 227.983 320.325 235.752 317.209L235.786 325.322Z" fill="#317F8B"/>
</g>
</g>
</g>
</g>
<path d="M220.343 329.682C215.849 329.682 211.382 329.313 207.556 328.852C204.626 328.499 202.026 327.017 200.234 324.679C198.439 322.337 197.69 319.441 198.123 316.525C198.517 313.867 199.88 311.463 201.96 309.754C204.042 308.043 206.673 307.17 209.367 307.297C220.657 307.823 229.855 307.455 235.265 306.26C236.351 306.02 239.05 306.011 240.643 311.113C242.261 316.296 242.082 325.002 236.558 327.229C232.003 329.064 226.152 329.682 220.343 329.682ZM208.852 311.392C205.525 311.392 202.697 313.805 202.205 317.125C201.936 318.934 202.401 320.732 203.515 322.185C204.625 323.634 206.236 324.553 208.053 324.772C219.769 326.183 229.344 325.703 235.011 323.419C236.693 322.74 237.176 320.024 237.307 318.887C237.76 314.912 236.546 311.239 235.785 310.35C228.401 311.897 217.274 311.778 209.175 311.4C209.066 311.394 208.959 311.392 208.852 311.392Z" fill="#317F8B"/>
<path d="M295.189 325.323C302.956 328.455 314.975 327.8 323.169 326.811C328.083 326.22 331.534 321.702 330.809 316.824C330.148 312.373 326.215 309.136 321.703 309.346C314.039 309.704 302.542 309.872 295.261 308.263" fill="white"/>
<g opacity="0.35">
<g opacity="0.35">
<g opacity="0.35">
<g opacity="0.35">
<path opacity="0.35" d="M323.166 326.815C314.973 327.796 302.954 328.458 295.185 325.322L295.219 317.134C302.987 320.25 314.986 319.595 323.166 318.606C326.144 318.252 328.581 316.451 329.882 314.004C330.34 314.864 330.662 315.811 330.812 316.826C331.531 321.702 328.082 326.222 323.166 326.815Z" fill="#317F8B"/>
</g>
</g>
</g>
</g>
<path d="M310.63 329.682C304.821 329.682 298.971 329.065 294.415 327.228C288.892 325.001 288.713 316.294 290.331 311.112C291.923 306.011 294.623 306.019 295.709 306.259C301.12 307.455 310.317 307.823 321.607 307.295C324.303 307.17 326.932 308.043 329.014 309.753C331.093 311.462 332.456 313.866 332.851 316.524C333.284 319.44 332.533 322.336 330.739 324.678C328.948 327.016 326.348 328.498 323.418 328.851C319.592 329.312 315.123 329.682 310.63 329.682ZM295.19 310.35C294.429 311.239 293.214 314.912 293.668 318.888C293.797 320.024 294.28 322.74 295.964 323.419C301.63 325.704 311.205 326.185 322.922 324.772C324.737 324.553 326.35 323.634 327.46 322.185C328.574 320.732 329.038 318.935 328.77 317.125C328.262 313.699 325.266 311.239 321.801 311.4C313.7 311.778 302.574 311.895 295.19 310.35Z" fill="#317F8B"/>
<path d="M298.191 302.626V329.965C298.191 335.037 294.023 339.188 288.93 339.188H238.381C233.295 339.188 229.127 335.037 229.127 329.965V302.626C229.127 297.554 233.295 293.409 238.381 293.409H288.93C291.928 293.409 294.604 294.848 296.302 297.063C297.486 298.61 298.191 300.54 298.191 302.626Z" fill="white"/>
<g opacity="0.35">
<g opacity="0.35">
<g opacity="0.35">
<g opacity="0.35">
<path opacity="0.35" d="M298.189 302.626V329.965C298.189 335.037 294.023 339.186 288.931 339.186H238.383C233.29 339.186 229.124 335.037 229.124 329.965V319.739C236.716 327.448 251.646 332.288 265.339 332.36C269.739 332.384 273.288 328.918 273.602 324.546C273.606 324.502 273.609 324.458 273.613 324.415C273.949 320.579 277.121 317.474 280.976 317.197C285.367 316.882 289.074 320.112 289.508 324.31C296.136 316.16 294.194 301.995 296.302 297.063C297.487 298.613 298.189 300.539 298.189 302.626Z" fill="#317F8B"/>
</g>
</g>
</g>
</g>
<path d="M288.932 341.242H238.381C232.14 341.242 227.062 336.184 227.062 329.968V302.626C227.062 296.41 232.14 291.353 238.381 291.353H288.932C295.173 291.353 300.251 296.41 300.251 302.626V329.968C300.251 336.184 295.173 341.242 288.932 341.242ZM238.381 295.462C234.415 295.462 231.188 298.676 231.188 302.626V329.968C231.188 333.919 234.415 337.133 238.381 337.133H288.932C292.898 337.133 296.125 333.919 296.125 329.968V302.626C296.125 298.676 292.898 295.462 288.932 295.462H238.381Z" fill="#317F8B"/>
<path d="M281.565 324.248C285.974 324.248 289.548 320.688 289.548 316.297C289.548 311.905 285.974 308.346 281.565 308.346C277.156 308.346 273.582 311.905 273.582 316.297C273.582 320.688 277.156 324.248 281.565 324.248Z" fill="#22A7F0"/>
<g opacity="0.7">
<g opacity="0.7">
<g opacity="0.7">
<g opacity="0.7">
<path opacity="0.7" d="M289.547 316.297C289.547 316.841 289.495 317.37 289.392 317.886C288.655 314.25 285.43 311.515 281.567 311.515C277.698 311.515 274.473 314.25 273.736 317.886C273.633 317.37 273.581 316.842 273.581 316.297C273.581 311.903 277.156 308.348 281.567 308.348C285.971 308.348 289.547 311.903 289.547 316.297Z" fill="white"/>
</g>
</g>
</g>
</g>
<g opacity="0.35">
<g opacity="0.35">
<g opacity="0.35">
<g opacity="0.35">
<path opacity="0.35" d="M289.546 316.296C289.546 320.686 285.973 324.244 281.565 324.244C277.157 324.244 273.584 320.686 273.584 316.296C273.584 315.28 273.776 314.311 274.132 313.419C275.282 316.385 278.178 318.484 281.566 318.484C284.954 318.484 287.849 316.385 289 313.419C289.354 314.311 289.546 315.279 289.546 316.296Z" fill="#317F8B"/>
</g>
</g>
</g>
</g>
<path d="M281.565 325.788C276.311 325.788 272.036 321.53 272.036 316.297C272.036 311.063 276.311 306.805 281.565 306.805C286.82 306.805 291.095 311.063 291.095 316.297C291.095 321.53 286.82 325.788 281.565 325.788ZM281.565 309.887C278.017 309.887 275.13 312.763 275.13 316.297C275.13 319.831 278.017 322.706 281.565 322.706C285.113 322.706 288 319.831 288 316.297C288 312.763 285.113 309.887 281.565 309.887Z" fill="#317F8B"/>
<path d="M258.945 340.728C258.09 340.728 257.398 340.038 257.398 339.187V320.462L247.289 312.881V293.407C247.289 292.556 247.982 291.867 248.836 291.867C249.69 291.867 250.382 292.557 250.382 293.407V311.343L260.491 318.924V339.187C260.491 340.038 259.799 340.728 258.945 340.728Z" fill="#317F8B"/>
<path d="M264.648 353.907C273.59 353.907 282.189 350.602 288.905 344.721C298.208 336.576 313.869 326.862 331.154 333.093C338.091 335.591 342.817 340.176 346.042 345.248C354.347 326.082 371.768 324.933 379.309 335.796C379.309 335.796 366.634 396.024 362.503 397.365C356.585 399.285 342.365 397.266 342.365 397.266C342.365 397.266 292.897 390.595 264.648 390.595C236.4 390.595 186.931 397.266 186.931 397.266C186.931 397.266 172.712 399.284 166.794 397.365C162.663 396.024 149.988 335.796 149.988 335.796C157.527 324.932 174.95 326.082 183.255 345.248C186.479 340.174 191.206 335.591 198.142 333.093C215.428 326.862 231.089 336.576 240.391 344.721C247.108 350.601 255.706 353.907 264.648 353.907Z" fill="white"/>
<g opacity="0.35">
<path d="M379.31 335.794C379.31 335.794 366.634 396.024 362.503 397.365C356.588 399.286 342.365 397.268 342.365 397.268C342.365 397.268 292.898 390.595 264.648 390.595C236.403 390.595 186.931 397.268 186.931 397.268C186.931 397.268 172.712 399.286 166.798 397.365C162.667 396.024 149.991 335.794 149.991 335.794C151.234 334.006 152.739 332.542 154.431 331.433C158.495 349.092 164.26 372.15 166.798 372.972C172.713 374.888 186.931 372.869 186.931 372.869C186.931 372.869 236.403 359.525 264.648 359.525C292.898 359.525 342.365 372.869 342.365 372.869C342.365 372.869 356.588 374.888 362.503 372.972C365.041 372.15 370.806 349.092 374.87 331.433C376.562 332.543 378.068 334.007 379.31 335.794Z" fill="#317F8B"/>
</g>
<path d="M174.42 400.242C171.318 400.242 168.287 400.01 166.155 399.319C164.702 398.847 163.479 397.242 161.185 390.124C159.843 385.958 158.231 380.156 156.398 372.881C153.096 359.782 149.878 345.091 148.647 339.383C148.003 336.394 148.986 333.303 151.215 331.318C155.492 327.504 161.225 326.036 166.942 327.289C170.546 328.08 174.052 329.953 177.082 332.708C179.591 334.991 181.773 337.841 183.592 341.212C187.283 336.521 191.929 333.147 197.443 331.161C203.689 328.909 210.225 328.462 216.87 329.831C222.235 330.938 227.69 333.232 233.083 336.652C234.045 337.262 234.327 338.531 233.716 339.489C233.105 340.447 231.829 340.728 230.867 340.119C219.767 333.081 208.994 331.367 198.846 335.026C193.123 337.088 188.464 340.896 185 346.348C184.591 346.992 183.856 347.356 183.095 347.298C182.333 347.238 181.666 346.763 181.362 346.063C177.893 338.055 172.314 332.675 166.055 331.304C161.649 330.339 157.243 331.46 153.967 334.382C152.84 335.386 152.347 336.973 152.682 338.523C153.843 343.911 156.887 357.811 160.057 370.511C161.8 377.492 163.344 383.172 164.648 387.39C166.474 393.298 167.427 395.031 167.767 395.514C172.427 396.815 182.909 395.765 186.642 395.235C186.646 395.234 186.651 395.234 186.655 395.233C187.151 395.166 236.587 388.543 264.649 388.543C292.713 388.543 342.148 395.166 342.643 395.233C342.648 395.234 342.653 395.234 342.658 395.235C346.392 395.765 356.873 396.815 361.533 395.514C361.866 395.04 362.794 393.357 364.558 387.691C365.832 383.604 367.339 378.097 369.04 371.323C372.072 359.244 374.978 346.102 376.441 339.343C376.921 337.129 376.087 334.858 374.318 333.56C370.942 331.081 366.758 330.341 362.539 331.477C356.493 333.104 351.307 338.285 347.937 346.064C347.635 346.763 346.968 347.239 346.205 347.299C345.442 347.359 344.709 346.993 344.3 346.349C340.836 340.898 336.177 337.089 330.454 335.027C320.217 331.337 309.352 333.11 298.157 340.296C297.199 340.911 295.923 340.636 295.305 339.682C294.688 338.729 294.964 337.457 295.922 336.842C301.348 333.359 306.838 331.014 312.24 329.872C318.951 328.454 325.551 328.888 331.858 331.162C337.371 333.149 342.018 336.523 345.71 341.215C349.585 334.041 355.089 329.225 361.463 327.509C366.843 326.06 372.421 327.06 376.767 330.252C379.84 332.508 381.295 336.416 380.475 340.208C378.926 347.369 375.856 361.241 372.697 373.695C370.906 380.757 369.332 386.384 368.02 390.417C365.782 397.298 364.58 398.856 363.143 399.321C356.87 401.356 342.802 399.406 342.085 399.304C341.31 399.2 292.353 392.653 264.65 392.653C236.943 392.653 187.991 399.2 187.216 399.304C186.739 399.369 180.447 400.242 174.42 400.242Z" fill="#317F8B"/>
<path d="M358.83 397.365H362.504C366.817 397.365 370.728 394.845 372.484 390.922C377.984 378.656 388.011 351.702 378.619 335.255C378.346 334.775 378.053 334.313 377.744 333.87C377.744 333.87 368.727 325.701 362.248 337.257C356.198 348.053 343.497 394.213 358.83 397.365Z" fill="#AFAFB2"/>
<g opacity="0.7">
<g opacity="0.7">
<g opacity="0.7">
<g opacity="0.7">
<path opacity="0.7" d="M358.931 344.952C359.093 344.693 359.255 344.449 359.413 344.222C367.377 332.666 378.466 340.835 378.466 340.835C378.846 341.278 379.208 341.74 379.541 342.22C380.653 343.803 381.542 345.483 382.237 347.241C381.788 342.921 380.667 338.837 378.619 335.256C378.346 334.776 378.053 334.314 377.744 333.871C377.744 333.871 368.727 325.702 362.249 337.258C361.265 339.008 360.112 341.68 358.931 344.952Z" fill="white"/>
</g>
</g>
</g>
</g>
<path d="M382.189 348.473C382.096 348.473 382.002 348.466 381.907 348.45L359.369 344.702C358.442 344.549 357.816 343.676 357.971 342.752C358.125 341.829 359.002 341.206 359.928 341.359L382.466 345.107C383.392 345.26 384.018 346.133 383.864 347.057C383.725 347.887 383.005 348.473 382.189 348.473Z" fill="#317F8B"/>
<path d="M382.045 360.602C381.969 360.602 381.893 360.597 381.816 360.586L355.451 357.055C354.52 356.931 353.867 356.079 353.992 355.151C354.117 354.224 354.973 353.574 355.905 353.698L382.27 357.228C383.201 357.353 383.854 358.205 383.729 359.132C383.615 359.984 382.884 360.602 382.045 360.602Z" fill="#317F8B"/>
<path d="M379.72 372.481C379.651 372.481 379.582 372.477 379.511 372.469L352.747 369.206C351.815 369.092 351.152 368.247 351.265 367.319C351.38 366.39 352.227 365.728 353.16 365.842L379.924 369.105C380.856 369.219 381.519 370.064 381.406 370.992C381.301 371.852 380.567 372.481 379.72 372.481Z" fill="#317F8B"/>
<path d="M375.476 385.436C375.425 385.436 375.372 385.434 375.32 385.429L351.392 383.279C350.457 383.195 349.767 382.371 349.851 381.439C349.935 380.507 350.763 379.82 351.698 379.904L375.626 382.055C376.562 382.138 377.252 382.963 377.167 383.895C377.088 384.774 376.345 385.436 375.476 385.436Z" fill="#317F8B"/>
<g opacity="0.35">
<g opacity="0.35">
<g opacity="0.35">
<g opacity="0.35">
<path opacity="0.35" d="M358.828 397.365H362.502C366.816 397.365 370.727 394.845 372.483 390.922C373.905 387.742 375.634 383.584 377.251 378.872C375.046 382.518 370.564 384.83 365.644 384.83H361.265C355.033 383.755 352.688 377.667 352.595 369.688C350.488 383.156 351.067 395.769 358.828 397.365Z" fill="#317F8B"/>
</g>
</g>
</g>
</g>
<path d="M362.504 399.059H358.83C358.714 399.059 358.6 399.048 358.486 399.024C355.517 398.413 353.272 396.495 351.815 393.323C348.381 385.844 350.05 372.814 352.056 363.201C354.507 351.453 358.292 340.841 360.764 336.432C363.037 332.377 365.9 330.043 369.272 329.495C374.445 328.655 378.71 332.455 378.889 332.617C378.983 332.701 379.067 332.797 379.14 332.9C379.479 333.383 379.802 333.895 380.1 334.418C384.393 341.935 385.304 352.218 382.808 364.98C380.778 375.354 376.919 385.189 374.039 391.612C372.013 396.136 367.486 399.059 362.504 399.059ZM359.015 395.671H362.504C366.144 395.671 369.452 393.536 370.931 390.233C373.739 383.97 377.499 374.393 379.467 364.334C381.804 352.39 381.021 342.888 377.142 336.093C376.931 335.722 376.705 335.361 376.47 335.015C375.833 334.497 372.938 332.322 369.801 332.842C367.512 333.223 365.471 334.986 363.735 338.084C361.447 342.166 357.744 352.598 355.387 363.891C352.699 376.778 352.529 386.731 354.91 391.915C355.876 394.019 357.22 395.25 359.015 395.671Z" fill="#317F8B"/>
<path d="M170.47 397.365H166.796C162.483 397.365 158.572 394.845 156.815 390.922C151.316 378.656 141.288 351.702 150.681 335.255C150.954 334.775 151.247 334.313 151.556 333.87C151.556 333.87 160.573 325.701 167.051 337.257C173.102 348.053 185.802 394.213 170.47 397.365Z" fill="#AFAFB2"/>
<g opacity="0.7">
<g opacity="0.7">
<g opacity="0.7">
<g opacity="0.7">
<path opacity="0.7" d="M170.367 344.952C170.205 344.693 170.042 344.449 169.885 344.222C161.92 332.666 150.831 340.835 150.831 340.835C150.452 341.278 150.09 341.74 149.757 342.22C148.644 343.803 147.755 345.483 147.06 347.241C147.509 342.921 148.631 338.837 150.678 335.256C150.952 334.776 151.244 334.314 151.554 333.871C151.554 333.871 160.571 325.702 167.049 337.258C168.031 339.008 169.185 341.68 170.367 344.952Z" fill="white"/>
</g>
</g>
</g>
</g>
<path d="M147.109 348.473C146.293 348.473 145.573 347.886 145.434 347.058C145.279 346.135 145.904 345.262 146.832 345.108L169.37 341.36C170.296 341.207 171.173 341.829 171.327 342.753C171.481 343.676 170.856 344.549 169.929 344.703L147.391 348.451C147.297 348.467 147.202 348.473 147.109 348.473Z" fill="#317F8B"/>
<path d="M147.252 360.602C146.413 360.602 145.683 359.984 145.568 359.134C145.443 358.206 146.096 357.354 147.027 357.229L173.393 353.698C174.326 353.572 175.181 354.224 175.306 355.151C175.431 356.079 174.778 356.931 173.847 357.056L147.481 360.587C147.404 360.597 147.328 360.602 147.252 360.602Z" fill="#317F8B"/>
<path d="M149.579 372.481C148.732 372.481 147.998 371.852 147.893 370.992C147.778 370.064 148.442 369.219 149.375 369.105L176.139 365.842C177.071 365.729 177.919 366.389 178.034 367.318C178.148 368.247 177.485 369.092 176.552 369.206L149.788 372.469C149.717 372.478 149.647 372.481 149.579 372.481Z" fill="#317F8B"/>
<path d="M153.824 385.436C152.953 385.436 152.211 384.774 152.132 383.894C152.048 382.963 152.737 382.139 153.673 382.055L177.601 379.904C178.538 379.821 179.363 380.507 179.448 381.439C179.532 382.371 178.843 383.194 177.907 383.279L153.979 385.429C153.927 385.434 153.875 385.436 153.824 385.436Z" fill="#317F8B"/>
<g opacity="0.35">
<g opacity="0.35">
<g opacity="0.35">
<g opacity="0.35">
<path opacity="0.35" d="M170.469 397.365H166.795C162.481 397.365 158.571 394.845 156.814 390.922C155.392 387.742 153.663 383.584 152.046 378.872C154.251 382.518 158.733 384.83 163.653 384.83H168.032C174.264 383.755 176.609 377.667 176.702 369.688C178.809 383.156 178.229 395.769 170.469 397.365Z" fill="#317F8B"/>
</g>
</g>
</g>
</g>
<path d="M170.469 399.059H166.795C161.814 399.059 157.286 396.136 155.261 391.612C152.382 385.19 148.522 375.355 146.492 364.981C143.996 352.22 144.907 341.936 149.2 334.418C149.498 333.895 149.821 333.385 150.159 332.901C150.232 332.797 150.316 332.702 150.41 332.618C150.589 332.455 154.854 328.656 160.027 329.496C163.399 330.044 166.262 332.378 168.535 336.433C171.007 340.842 174.792 351.454 177.243 363.202C179.249 372.815 180.918 385.845 177.484 393.324C176.027 396.497 173.782 398.414 170.813 399.025C170.699 399.048 170.584 399.059 170.469 399.059ZM152.828 335.017C152.593 335.361 152.368 335.722 152.157 336.092C148.277 342.888 147.494 352.389 149.831 364.333C151.799 374.394 155.558 383.97 158.367 390.233C159.847 393.537 163.154 395.672 166.794 395.672H170.283C172.078 395.251 173.423 394.02 174.389 391.915C176.769 386.731 176.6 376.778 173.912 363.891C171.555 352.598 167.852 342.166 165.564 338.084C163.828 334.986 161.787 333.223 159.498 332.842C156.367 332.323 153.473 334.491 152.828 335.017Z" fill="#317F8B"/>
<path d="M211.941 395.819C211.699 395.819 211.454 395.762 211.225 395.643C210.468 395.249 210.175 394.317 210.572 393.562C217.032 381.269 217.127 367.443 210.855 352.47C206.125 341.178 199.35 333.45 199.282 333.373C198.718 332.735 198.779 331.762 199.42 331.198C200.06 330.636 201.038 330.696 201.602 331.334C201.892 331.66 208.739 339.457 213.674 351.196C216.586 358.123 218.21 364.977 218.503 371.57C218.87 379.858 217.124 387.738 213.313 394.991C213.036 395.519 212.497 395.819 211.941 395.819Z" fill="#317F8B"/>
<path d="M317.985 395.819C317.427 395.819 316.89 395.518 316.613 394.992C312.802 387.739 311.056 379.859 311.423 371.571C311.715 364.978 313.339 358.124 316.251 351.197C321.186 339.458 328.034 331.66 328.323 331.335C328.889 330.697 329.866 330.636 330.507 331.199C331.148 331.762 331.209 332.735 330.643 333.373C330.575 333.45 323.801 341.177 319.07 352.47C312.798 367.444 312.894 381.269 319.354 393.562C319.749 394.317 319.457 395.247 318.7 395.643C318.471 395.762 318.226 395.819 317.985 395.819Z" fill="#317F8B"/>
<g opacity="0.35">
<path d="M315.914 247.779C314.129 249.813 312.253 251.745 310.298 253.559C305.657 257.863 300.571 261.525 295.131 264.428C285.94 269.338 275.745 272.092 265.008 272.143C254.518 272.189 244.534 269.651 235.484 265.039C229.558 262.013 224.034 258.104 219.037 253.446C216.552 251.124 214.194 248.622 211.982 245.957C215.989 244.724 219.97 243.296 223.616 241.883C228.144 231.019 233.424 219.893 239.583 208.768H289.715C294.805 217.967 299.297 227.161 303.257 236.217C307.033 238.41 311.381 242.54 315.914 247.779Z" fill="#317F8B"/>
</g>
<path d="M341.204 198.175C340.331 198.269 339.547 197.64 339.453 196.77L334.56 151.42C334.466 150.551 335.098 149.77 335.971 149.676C345.129 148.696 353.352 155.296 354.336 164.418L356.006 179.883C356.99 189.006 350.363 197.195 341.204 198.175Z" fill="white"/>
<path d="M341.03 198.575C340.58 198.575 340.146 198.424 339.791 198.138C339.378 197.807 339.121 197.336 339.064 196.812L334.171 151.462C334.115 150.938 334.267 150.423 334.599 150.013C334.931 149.603 335.404 149.346 335.93 149.289C345.291 148.287 353.721 155.056 354.727 164.378L356.395 179.843C356.883 184.358 355.575 188.792 352.713 192.328C349.852 195.864 345.779 198.079 341.246 198.565L341.204 198.176L341.246 198.565C341.174 198.572 341.102 198.575 341.03 198.575ZM337.766 149.97C337.186 149.97 336.602 150.001 336.014 150.064C335.695 150.098 335.41 150.254 335.209 150.501C335.008 150.749 334.916 151.06 334.95 151.377L339.843 196.727C339.877 197.045 340.034 197.329 340.283 197.529C340.533 197.729 340.844 197.821 341.163 197.787C345.489 197.324 349.374 195.21 352.104 191.837C354.835 188.463 356.082 184.233 355.617 179.924L353.949 164.459C353.051 156.152 345.973 149.97 337.766 149.97Z" fill="#317F8B"/>
<g opacity="0.35">
<g opacity="0.35">
<g opacity="0.35">
<g opacity="0.35">
<path opacity="0.35" d="M355.223 172.631L356.008 179.884C356.991 189.003 350.364 197.195 341.204 198.178C340.331 198.273 339.548 197.639 339.454 196.77L338.148 184.715C338.452 185.238 339.047 185.559 339.687 185.495L340.767 185.377C348.003 184.603 353.664 179.323 355.223 172.631Z" fill="#317F8B"/>
</g>
</g>
</g>
</g>
<path d="M341.028 200.358C340.171 200.358 339.345 200.069 338.668 199.526C337.884 198.897 337.393 198 337.285 197.003L332.392 151.653C332.284 150.656 332.574 149.675 333.205 148.894C333.837 148.112 334.737 147.623 335.738 147.516C346.078 146.409 355.395 153.888 356.506 164.187L358.174 179.652C358.713 184.64 357.268 189.54 354.107 193.447C350.946 197.354 346.446 199.801 341.436 200.337C341.301 200.35 341.164 200.358 341.028 200.358ZM340.974 196.015H340.973C340.973 196.015 340.973 196.015 340.974 196.015ZM336.796 151.786L341.56 195.941C345.174 195.408 348.406 193.569 350.712 190.72C353.142 187.717 354.252 183.951 353.838 180.116L352.17 164.651C351.337 156.931 344.506 151.271 336.796 151.786Z" fill="#317F8B"/>
<path d="M185.681 165.762C186.555 165.669 187.338 166.298 187.432 167.167L192.325 212.517C192.419 213.387 191.788 214.167 190.915 214.261C181.756 215.241 173.534 208.641 172.549 199.519L170.881 184.054C169.895 174.932 176.523 166.743 185.681 165.762Z" fill="white"/>
<path d="M189.118 214.748C180.517 214.749 173.097 208.269 172.158 199.561L170.49 184.096C169.485 174.774 176.28 166.376 185.64 165.374L185.682 165.762L185.64 165.374C186.725 165.258 187.704 166.044 187.821 167.126L192.714 212.476C192.831 213.558 192.042 214.532 190.955 214.649C190.34 214.715 189.725 214.748 189.118 214.748ZM185.852 166.143C185.809 166.143 185.767 166.145 185.722 166.15C176.793 167.105 170.309 175.118 171.269 184.012L172.937 199.477C173.897 208.371 181.941 214.829 190.872 213.874C191.528 213.804 192.005 213.214 191.935 212.56L187.042 167.21C186.976 166.598 186.455 166.143 185.852 166.143Z" fill="#317F8B"/>
<g opacity="0.35">
<g opacity="0.35">
<g opacity="0.35">
<g opacity="0.35">
<path opacity="0.35" d="M190.972 199.936L192.328 212.517C192.423 213.387 191.786 214.167 190.914 214.261C186.106 214.774 181.552 213.201 178.171 210.267C175.117 207.617 173.019 203.852 172.551 199.521L171.848 193.005C175.065 198.444 181.287 201.806 188.002 201.089L189.663 200.911C190.269 200.845 190.748 200.455 190.972 199.936Z" fill="#317F8B"/>
</g>
</g>
</g>
</g>
<path d="M189.117 216.53C179.613 216.531 171.417 209.372 170.379 199.751L168.711 184.286C167.6 173.987 175.109 164.708 185.449 163.601C187.515 163.379 189.379 164.875 189.601 166.934L194.494 212.285C194.717 214.345 193.215 216.199 191.147 216.421C190.466 216.495 189.787 216.53 189.117 216.53ZM185.327 167.998C177.684 169.127 172.216 176.102 173.048 183.823L174.716 199.288C175.55 207.008 182.381 212.666 190.09 212.153L185.327 167.998Z" fill="#317F8B"/>
<path d="M263.451 259.693C306.549 259.693 341.488 224.895 341.488 181.968C341.488 139.042 306.549 104.243 263.451 104.243C220.352 104.243 185.414 139.042 185.414 181.968C185.414 224.895 220.352 259.693 263.451 259.693Z" fill="white"/>
<path d="M263.375 260.085C253.807 260.085 244.46 258.377 235.549 254.994C226.072 251.398 217.488 246.069 210.03 239.16C202.572 232.249 196.619 224.104 192.334 214.95C187.898 205.472 185.455 195.323 185.073 184.785C184.691 174.246 186.393 163.949 190.132 154.177C193.742 144.739 199.092 136.188 206.029 128.76C212.967 121.332 221.147 115.401 230.338 111.133C239.854 106.715 250.044 104.282 260.624 103.902C271.205 103.521 281.544 105.216 291.355 108.94C300.831 112.536 309.416 117.865 316.874 124.774C324.332 131.685 330.285 139.83 334.57 148.984C339.006 158.462 341.448 168.611 341.831 179.149C342.213 189.688 340.511 199.985 336.772 209.757C333.162 219.195 327.812 227.746 320.873 235.174C313.935 242.602 305.757 248.532 296.566 252.8C287.051 257.218 276.861 259.65 266.28 260.031C265.309 260.067 264.34 260.085 263.375 260.085ZM263.488 104.631C262.544 104.631 261.603 104.648 260.652 104.682C217.866 106.221 184.313 142.141 185.857 184.756C186.604 205.399 195.378 224.517 210.563 238.587C225.044 252.007 243.705 259.303 263.381 259.304C264.336 259.304 265.29 259.287 266.25 259.252C286.976 258.508 306.171 249.768 320.297 234.644C334.424 219.521 341.792 199.823 341.045 179.18C339.537 137.512 305.018 104.631 263.488 104.631Z" fill="#317F8B"/>
<g opacity="0.35">
<g opacity="0.35">
<g opacity="0.35">
<g opacity="0.35">
<path opacity="0.35" d="M340.301 168.44C340.925 171.935 341.307 175.515 341.44 179.166C342.988 222.064 309.334 258.094 266.264 259.645C223.194 261.187 187.019 227.667 185.462 184.77C185.417 183.537 185.401 182.301 185.416 181.083C192.043 218.705 225.672 246.647 265.079 245.232C306.911 243.726 339.855 209.698 340.301 168.44Z" fill="#317F8B"/>
</g>
</g>
</g>
</g>
<path d="M263.375 261.867C253.588 261.867 244.028 260.119 234.912 256.66C225.221 252.981 216.438 247.532 208.812 240.464C201.185 233.396 195.096 225.065 190.713 215.702C186.175 206.007 183.677 195.626 183.287 184.848C182.897 174.07 184.638 163.536 188.462 153.541C192.155 143.888 197.627 135.141 204.723 127.545C211.819 119.948 220.182 113.882 229.583 109.518C239.317 104.999 249.74 102.51 260.561 102.122C271.383 101.733 281.958 103.467 291.993 107.277C301.685 110.955 310.467 116.404 318.094 123.472C325.721 130.54 331.81 138.871 336.193 148.234C340.73 157.929 343.229 168.31 343.619 179.088C344.009 189.866 342.268 200.4 338.443 210.395C334.75 220.048 329.279 228.795 322.183 236.392C315.087 243.988 306.722 250.053 297.321 254.418C287.588 258.938 277.165 261.426 266.344 261.814C265.353 261.849 264.362 261.867 263.375 261.867ZM263.489 106.415C262.567 106.415 261.647 106.432 260.718 106.465C218.918 107.967 186.139 143.059 187.647 184.692C188.377 204.86 196.95 223.537 211.784 237.284C225.932 250.394 244.162 257.523 263.385 257.523C264.317 257.523 265.252 257.506 266.188 257.472C286.437 256.745 305.189 248.206 318.991 233.431C332.793 218.657 339.991 199.413 339.26 179.245C337.785 138.536 304.06 106.415 263.489 106.415Z" fill="#317F8B"/>
<path d="M341.262 181.17C342.043 196.359 337.817 210.715 329.951 222.814C324.054 231.885 298.748 248.526 266.542 250.457C236.68 252.248 208.682 237.769 201.885 229.346C192.819 218.11 187.143 204.26 186.362 189.071C184.295 148.875 218.112 130.442 260.889 128.26C303.664 126.078 339.195 140.973 341.262 181.17Z" fill="#17A2B8"/>
<path d="M261.359 252.105C246.51 252.105 233.595 248.419 225.023 245.125C214.168 240.956 204.626 235.129 200.715 230.282C191.116 218.387 185.635 204.162 184.863 189.147C184.35 179.183 186 170.142 189.764 162.275C193.307 154.871 198.742 148.456 205.92 143.206C219.032 133.615 238.013 127.931 260.81 126.769C283.607 125.607 303.071 129.329 317.099 137.535C324.777 142.027 330.842 147.856 335.126 154.862C339.678 162.304 342.246 171.13 342.758 181.094C343.53 196.109 339.535 210.816 331.207 223.626C327.748 228.948 319.154 235.471 308.782 240.648C299.671 245.196 284.961 250.849 266.63 251.948C264.85 252.054 263.09 252.105 261.359 252.105ZM268.859 129.546C266.278 129.546 263.647 129.614 260.964 129.75C238.754 130.883 220.334 136.369 207.694 145.613C193.583 155.934 186.908 170.531 187.857 188.994C188.597 203.378 193.851 217.009 203.052 228.411C205.789 231.804 213.468 237.487 226.102 242.34C235.397 245.91 249.941 249.958 266.451 248.968C284.275 247.898 298.58 242.401 307.44 237.978C319.314 232.051 326.31 225.668 328.693 222.003C336.676 209.724 340.506 195.631 339.766 181.247C338.817 162.783 330.68 148.942 315.583 140.11C303.694 133.156 287.654 129.546 268.859 129.546Z" fill="#317F8B"/>
<g opacity="0.5">
<g opacity="0.5">
<g opacity="0.5">
<g opacity="0.5">
<path d="M325.726 178.264C326.7 170.73 323.046 164.052 317.565 163.349C312.083 162.646 306.85 168.184 305.876 175.719C304.902 183.253 308.556 189.931 314.038 190.634C319.519 191.337 324.752 185.799 325.726 178.264Z" fill="white"/>
</g>
</g>
</g>
</g>
<g opacity="0.5">
<g opacity="0.5">
<g opacity="0.5">
<g opacity="0.5">
<path d="M310.215 206.269C311.137 202.906 309.536 199.54 306.638 198.751C303.741 197.963 300.643 200.05 299.721 203.413C298.798 206.777 300.399 210.142 303.297 210.931C306.195 211.72 309.292 209.633 310.215 206.269Z" fill="white"/>
</g>
</g>
</g>
</g>
<g opacity="0.35">
<path d="M324.27 144.438C334.201 152.954 340.429 165.024 341.261 181.168C342.042 196.36 337.814 210.715 329.954 222.814C324.054 231.885 298.746 248.525 266.54 250.461C255.169 251.146 244.071 249.468 234.306 246.659C273.842 243.44 304.661 223.029 311.975 211.778C321.961 196.421 327.323 178.199 326.328 158.925C326.068 153.773 325.361 148.949 324.27 144.438Z" fill="#317F8B"/>
</g>
<path d="M190.432 156.587C189.992 156.587 189.549 156.451 189.171 156.167C188.279 155.498 188.074 154.26 188.681 153.346C191.919 148.047 196.055 143.204 200.971 138.953C205.759 134.815 211.326 131.202 217.519 128.214C223.582 125.29 230.283 122.948 237.436 121.252C244.524 119.571 252.091 118.516 259.929 118.117C267.637 117.723 275.19 117.989 282.378 118.904C289.632 119.828 296.529 121.417 302.875 123.625C309.369 125.885 315.311 128.803 320.536 132.298C325.908 135.892 330.553 140.118 334.347 144.861C335.01 145.591 335.078 146.711 334.457 147.524C333.757 148.443 332.44 148.622 331.517 147.924L331.297 147.761L331.132 147.551C317.083 129.914 291.208 120.707 260.143 122.292C228.906 123.885 204.154 136.015 192.235 155.571L192.18 155.66L192.109 155.754C191.698 156.299 191.069 156.587 190.432 156.587Z" fill="#317F8B"/>
<g opacity="0.5">
<g opacity="0.5">
<g opacity="0.5">
<g opacity="0.5">
<path d="M204.984 212.096C204.984 212.096 190.446 173.08 211.091 156.183C231.735 139.286 262.608 137.776 261.988 139.784C261.988 139.784 228.237 149.768 216.248 177.359C207.003 198.636 204.984 212.096 204.984 212.096Z" fill="white"/>
</g>
</g>
</g>
</g>
<path d="M334.175 401.837H195.772C191.291 401.837 187.658 398.218 187.658 393.755C187.658 391.183 189.751 389.099 192.333 389.099H337.614C340.196 389.099 342.289 391.183 342.289 393.755C342.289 398.22 338.656 401.837 334.175 401.837Z" fill="#E6E9FA"/>
<g opacity="0.3">
<g opacity="0.3">
<g opacity="0.3">
<g opacity="0.3">
<path opacity="0.3" d="M342.287 393.756C342.287 394.639 342.143 395.488 341.88 396.284C341.153 394.655 339.518 393.526 337.615 393.526H192.334C191.045 393.526 189.875 394.044 189.029 394.892C188.626 395.293 188.296 395.761 188.065 396.285C187.802 395.489 187.658 394.642 187.658 393.757C187.658 392.473 188.178 391.308 189.03 390.465C189.876 389.618 191.046 389.099 192.335 389.099H337.615C340.198 389.098 342.287 391.182 342.287 393.756Z" fill="white"/>
</g>
</g>
</g>
</g>
<g opacity="0.35">
<g opacity="0.35">
<g opacity="0.35">
<g opacity="0.35">
<path opacity="0.35" d="M342.286 393.756C342.286 395.986 341.379 398.01 339.909 399.468C338.444 400.931 336.412 401.836 334.174 401.836H195.774C191.293 401.836 187.656 398.22 187.656 393.756C187.656 392.898 187.889 392.092 188.3 391.398C189.527 394.291 192.415 396.325 195.773 396.325H334.173C336.412 396.325 338.444 395.421 339.907 393.956C340.64 393.227 341.233 392.359 341.64 391.398C342.055 392.092 342.286 392.898 342.286 393.756Z" fill="#317F8B"/>
</g>
</g>
</g>
</g>
<path d="M334.175 403.893H195.773C190.161 403.893 185.596 399.346 185.596 393.756C185.596 390.057 188.619 387.046 192.334 387.046H337.614C341.329 387.046 344.352 390.057 344.352 393.756C344.352 399.345 339.787 403.893 334.175 403.893ZM192.332 391.154C190.892 391.154 189.72 392.321 189.72 393.756C189.72 397.08 192.434 399.784 195.772 399.784H334.175C337.512 399.784 340.227 397.08 340.227 393.756C340.227 392.322 339.056 391.154 337.614 391.154H192.332Z" fill="#317F8B"/>
<path d="M350.368 298.109L336.831 389.096H193.118L192.629 385.804L179.575 298.109C179.147 295.228 181.39 292.644 184.309 292.644H345.633C348.558 292.644 350.795 295.228 350.368 298.109Z" fill="#FF66AC"/>
<path d="M350.368 298.109L336.831 389.096H193.118L192.629 385.804L179.575 298.109C179.147 295.228 181.39 292.644 184.309 292.644H345.633C348.558 292.644 350.795 295.228 350.368 298.109Z" fill="#E6E9FA"/>
<g opacity="0.5">
<g opacity="0.5">
<g opacity="0.5">
<g opacity="0.5">
<path opacity="0.5" d="M184.678 303.757C184.25 300.876 186.493 298.292 189.412 298.292H350.341L350.368 298.11C350.796 295.229 348.559 292.645 345.634 292.645H184.31C181.392 292.645 179.149 295.229 179.576 298.11L192.629 385.806L193.119 389.098H197.381L184.678 303.757Z" fill="white"/>
</g>
</g>
</g>
</g>
<g opacity="0.35">
<g opacity="0.35">
<g opacity="0.35">
<g opacity="0.35">
<path opacity="0.35" d="M341.098 292.644H329.77C334.065 308.317 331.695 343.71 303.985 362.208C269.198 385.428 206.505 385.28 193.195 385.804L193.685 389.096H332.295L345.832 298.109C346.26 295.228 344.022 292.644 341.098 292.644Z" fill="#317F8B"/>
</g>
</g>
</g>
</g>
<path d="M338.609 391.154H191.339L177.538 298.409C177.245 296.445 177.825 294.457 179.126 292.954C180.428 291.451 182.318 290.589 184.311 290.589H345.637C347.63 290.589 349.519 291.451 350.821 292.954C352.123 294.457 352.702 296.445 352.41 298.409L338.609 391.154ZM194.898 387.044H335.049L348.329 297.806C348.447 297.014 348.222 296.244 347.697 295.638C347.172 295.031 346.441 294.698 345.637 294.698H184.311C183.507 294.698 182.775 295.032 182.25 295.638C181.725 296.244 181.501 297.014 181.619 297.806L194.898 387.044Z" fill="#317F8B"/>
<g opacity="0.3">
<g opacity="0.3">
<g opacity="0.3">
<g opacity="0.3">
<path opacity="0.3" d="M204.558 367.839C199.106 355.87 195.136 335.438 196.031 323.413C196.926 311.388 203.928 315.068 206.098 330.471C211.873 371.463 206.992 373.183 204.558 367.839Z" fill="white"/>
</g>
</g>
</g>
</g>
<path d="M283.749 330.547C283.925 329.011 284.129 327.458 283.827 325.896C283.692 325.727 283.568 325.553 283.433 325.384C282.986 325.223 282.552 325.014 282.087 324.898C278.817 324.057 275.501 323.724 272.134 324.013C267.742 324.39 263.711 325.739 260.244 328.52C258.989 329.523 257.845 330.656 256.674 331.755C256.359 332.053 256.118 332.177 255.677 331.976C254.639 331.506 253.521 331.296 252.386 331.24C249.342 331.102 246.625 332.082 244.09 333.667C241.344 335.39 239.131 337.693 237.069 340.159C236.191 341.203 236.533 342.368 237.839 342.807C238.663 343.075 239.488 343.338 240.312 343.607C242.287 344.244 244.258 344.875 246.228 345.511C246.223 345.572 246.229 345.603 246.22 345.634C246.204 345.672 246.187 345.716 246.16 345.754C245.338 346.806 245.537 347.78 246.404 348.695C246.497 348.796 246.577 348.917 246.659 349.027C247.112 349.621 247.576 350.222 248.057 350.84C247.4 351.345 246.755 351.774 246.185 352.293C245.897 352.554 245.643 352.933 245.534 353.309C245.349 353.916 245.664 354.536 246.206 354.854C246.781 355.199 247.373 355.184 247.908 354.8C248.587 354.319 249.236 353.797 249.927 353.272C250.579 354.128 251.197 354.938 251.817 355.738C252.528 356.649 253.018 356.805 254.12 356.501C254.321 356.439 254.519 356.396 254.756 356.338C254.772 356.573 254.79 356.762 254.8 356.938C254.941 359.775 255.07 362.617 255.227 365.446C255.298 366.788 256.362 367.421 257.578 366.846C258.677 366.33 259.775 365.784 260.852 365.202C263.334 363.857 265.593 362.21 267.395 360.02C269.65 357.264 270.899 354.187 270.315 350.55C270.29 350.407 270.41 350.162 270.535 350.088C271.641 349.378 272.778 348.713 273.885 347.997C276.389 346.371 278.402 344.259 279.976 341.736C282.114 338.306 283.295 334.543 283.749 330.547ZM247.857 342.824C245.577 342.084 243.213 341.316 240.784 340.529C243.293 337.873 245.949 335.553 249.525 334.574C251.071 334.15 252.857 334.186 253.911 334.613C251.909 337.335 249.902 340.057 247.857 342.824ZM267.038 354.499C266.458 356.341 265.351 357.84 263.988 359.178C262.294 360.821 260.323 362.047 258.191 363.166C258.063 360.557 257.931 358.004 257.802 355.505C261.026 354.256 264.178 353.037 267.346 351.811C267.469 352.68 267.319 353.602 267.038 354.499ZM278.942 337.031C277.904 339.47 276.543 341.69 274.602 343.529C273.104 344.939 271.406 346.071 269.616 347.077C264.765 349.805 259.566 351.685 254.25 353.275C253.991 353.35 253.832 353.336 253.661 353.099C253.29 352.574 252.874 352.068 252.481 351.55C252.455 351.52 252.446 351.472 252.409 351.379C252.545 351.271 252.69 351.163 252.836 351.052C255.87 348.732 258.918 346.42 261.952 344.096C262.828 343.433 262.867 342.293 262.055 341.636C261.488 341.174 260.741 341.181 260.087 341.671C258.261 343.058 256.44 344.445 254.619 345.837C253.26 346.872 251.913 347.902 250.503 348.979C250.018 348.349 249.551 347.774 249.129 347.169C249.058 347.06 249.131 346.787 249.228 346.653C250.845 344.249 252.448 341.833 254.131 339.472C255.796 337.127 257.688 334.961 259.77 332.973C261.722 331.095 263.838 329.437 266.395 328.449C268.034 327.813 269.726 327.38 271.474 327.194C271.632 327.172 271.863 327.33 271.975 327.475C273.752 329.764 275.507 332.055 277.268 334.351C277.796 335.034 278.318 335.731 278.862 336.407C279.026 336.61 279.046 336.784 278.942 337.031ZM279.995 333.831C278.24 331.54 276.525 329.312 274.808 327.073C274.811 327.022 274.825 326.963 274.833 326.907C276.833 327.146 278.836 327.39 280.86 327.631C280.823 329.803 280.501 331.792 279.995 333.831Z" fill="#317F8B"/>
<path d="M278.865 336.405C278.32 335.73 277.799 335.033 277.271 334.35C275.511 332.054 273.754 329.762 271.978 327.474C271.865 327.329 271.635 327.17 271.476 327.193C269.729 327.379 268.037 327.812 266.397 328.448C263.839 329.436 261.725 331.094 259.773 332.972C257.691 334.96 255.799 337.126 254.134 339.471C252.451 341.833 250.848 344.249 249.231 346.651C249.133 346.786 249.061 347.059 249.132 347.167C249.553 347.773 250.02 348.348 250.505 348.978C251.916 347.9 253.263 346.869 254.622 345.836C256.443 344.443 258.264 343.055 260.089 341.67C260.744 341.179 261.49 341.174 262.058 341.635C262.87 342.293 262.832 343.433 261.955 344.094C258.92 346.419 255.872 348.731 252.839 351.05C252.693 351.162 252.547 351.269 252.412 351.378C252.449 351.472 252.458 351.519 252.484 351.548C252.877 352.067 253.293 352.573 253.663 353.098C253.835 353.335 253.993 353.349 254.253 353.274C259.569 351.684 264.768 349.804 269.619 347.076C271.407 346.071 273.107 344.938 274.605 343.527C276.545 341.689 277.907 339.468 278.944 337.03C279.046 336.784 279.026 336.61 278.865 336.405ZM273.541 339.902C271.222 341.642 267.941 341.217 266.199 338.939C264.446 336.664 264.888 333.398 267.186 331.634C269.441 329.904 272.724 330.351 274.482 332.627C276.221 334.889 275.797 338.203 273.541 339.902Z" fill="white"/>
<path d="M279.995 333.829C278.238 331.542 276.524 329.312 274.808 327.073C274.814 327.02 274.825 326.965 274.833 326.907C276.832 327.148 278.837 327.391 280.863 327.632C280.825 329.801 280.499 331.792 279.995 333.829Z" fill="#DB2C2C"/>
<path d="M253.912 334.614C251.907 337.333 249.9 340.057 247.858 342.826C245.574 342.082 243.21 341.316 240.782 340.53C243.294 337.87 245.948 335.551 249.525 334.574C251.07 334.149 252.854 334.186 253.912 334.614Z" fill="#DB2C2C"/>
<path d="M263.986 359.178C262.293 360.822 260.323 362.05 258.189 363.166C258.06 360.559 257.929 358.006 257.801 355.505C261.025 354.257 264.176 353.039 267.349 351.809C267.47 352.681 267.317 353.601 267.039 354.501C266.46 356.343 265.353 357.842 263.986 359.178Z" fill="#DB2C2C"/>
<path d="M274.481 332.627C272.723 330.351 269.44 329.905 267.184 331.634C264.887 333.399 264.445 336.664 266.198 338.939C267.939 341.217 271.221 341.643 273.54 339.902C275.796 338.204 276.22 334.889 274.481 332.627ZM271.977 337.981C270.803 338.868 269.077 338.634 268.162 337.465C267.215 336.26 267.473 334.489 268.726 333.563C269.9 332.686 271.659 332.941 272.542 334.115C273.465 335.337 273.211 337.053 271.977 337.981Z" fill="#317F8B"/>
<path d="M271.976 337.981C270.801 338.868 269.075 338.634 268.158 337.463C267.216 336.26 267.471 334.489 268.724 333.563C269.9 332.689 271.656 332.939 272.539 334.113C273.462 335.336 273.212 337.054 271.976 337.981Z" fill="#22A7F0"/>
<path d="M349.655 302.91C349.655 302.91 338.518 297.646 328.059 302.368C318.043 306.89 310.957 339.085 323.933 347.24C331.942 352.274 337.394 347.827 341.925 349.133C348.646 351.069 362.435 317.92 349.655 302.91Z" fill="white"/>
<g opacity="0.35">
<path d="M354.68 323.861C353.36 337.356 346.208 350.366 341.927 349.133C337.394 347.828 331.943 352.276 323.934 347.242C317.735 343.344 316.116 333.965 317.209 324.729C317.946 330.117 320.034 334.734 323.934 337.185C331.943 342.213 337.276 339.876 341.927 339.076C347.677 338.084 352.365 331.828 354.68 323.861Z" fill="#317F8B"/>
</g>
<path d="M332.145 351.756C329.443 351.756 326.316 351.168 322.831 348.978C319.712 347.017 317.459 343.845 316.135 339.549C315.024 335.944 314.609 331.55 314.933 326.844C315.318 321.27 316.694 315.552 318.807 310.743C320.422 307.069 323.189 302.309 327.205 300.496C338.407 295.439 350.048 300.822 350.537 301.053L350.939 301.243L351.226 301.581C357.075 308.45 357.412 317.94 356.665 324.69C355.824 332.297 353.129 340.365 349.63 345.748C346.127 351.138 343.193 351.638 341.349 351.107C340.153 350.762 338.641 351.003 336.891 351.282C335.507 351.503 333.918 351.756 332.145 351.756ZM337.591 302.45C334.456 302.45 331.55 303.048 328.91 304.24C326.739 305.221 324.433 308.192 322.588 312.392C320.688 316.716 319.399 322.086 319.051 327.128C318.436 336.029 320.617 342.728 325.033 345.504C329.486 348.303 332.921 347.755 336.241 347.225C338.387 346.883 340.415 346.56 342.498 347.16C342.737 347.201 344.454 346.542 346.875 342.364C352.521 332.623 356.102 314.226 348.377 304.596C347.502 304.234 345.249 303.381 342.301 302.87C340.68 302.59 339.109 302.45 337.591 302.45Z" fill="#317F8B"/>
</svg>
